<svg width="44" height="45" viewBox="0 0 44 45" fill="none" xmlns="http://www.w3.org/2000/svg">
<g filter="url(#filter0_d_449_1717)">
<rect x="2" y="1.25" width="40" height="40" rx="16" fill="white" shape-rendering="crispEdges"/>
<path d="M28 21.9167V26.5833C28 26.77 27.9356 26.9278 27.8067 27.0567C27.6778 27.1856 27.52 27.25 27.3334 27.25H16.6667C16.48 27.25 16.3223 27.1856 16.1934 27.0567C16.0645 26.9278 16 26.77 16 26.5833V21.9167H15.3334V20.5833L16 17.25H28L28.6667 20.5833V21.9167H28ZM17.3334 21.9167V25.9167H26.6667V21.9167H17.3334ZM16.6934 20.5833H27.3067L26.9067 18.5833H17.0934L16.6934 20.5833ZM18 22.5833H23.3334V24.5833H18V22.5833ZM16 15.25H28V16.5833H16V15.25Z" fill="#4CAF50"/>
</g>
<defs>
<filter id="filter0_d_449_1717" x="0" y="0.25" width="44" height="44" filterUnits="userSpaceOnUse" color-interpolation-filters="sRGB">
<feFlood flood-opacity="0" result="BackgroundImageFix"/>
<feColorMatrix in="SourceAlpha" type="matrix" values="0 0 0 0 0 0 0 0 0 0 0 0 0 0 0 0 0 0 127 0" result="hardAlpha"/>
<feOffset dy="1"/>
<feGaussianBlur stdDeviation="1"/>
<feComposite in2="hardAlpha" operator="out"/>
<feColorMatrix type="matrix" values="0 0 0 0 0 0 0 0 0 0 0 0 0 0 0 0 0 0 0.05 0"/>
<feBlend mode="normal" in2="BackgroundImageFix" result="effect1_dropShadow_449_1717"/>
<feBlend mode="normal" in="SourceGraphic" in2="effect1_dropShadow_449_1717" result="shape"/>
</filter>
</defs>
</svg>
