<svg width="41" height="40" viewBox="0 0 41 40" fill="none" xmlns="http://www.w3.org/2000/svg">
<path d="M15.8477 10.75C17.0027 10.75 18.0702 11.0533 19.0502 11.66C20.0068 12.2433 20.7477 13.0308 21.2727 14.0225C21.7977 13.2875 22.4568 12.7042 23.2502 12.2725C24.0785 11.8408 24.9652 11.625 25.9102 11.625H28.9727V13.8125C28.9727 14.8392 28.716 15.7958 28.2027 16.6825C27.701 17.5458 27.0185 18.2283 26.1552 18.73C25.2685 19.2433 24.3118 19.5 23.2852 19.5H21.9727V20.375H26.3477V26.5C26.3477 26.815 26.2689 27.1067 26.1114 27.375C25.9539 27.6433 25.741 27.8562 25.4727 28.0138C25.2043 28.1713 24.9127 28.25 24.5977 28.25H17.5977C17.2827 28.25 16.991 28.1713 16.7227 28.0138C16.4543 27.8562 16.2414 27.6433 16.0839 27.375C15.9264 27.1067 15.8477 26.815 15.8477 26.5V20.375H20.2227V18.625H18.4727C17.3643 18.625 16.3318 18.345 15.3752 17.785C14.4535 17.2483 13.7243 16.5192 13.1877 15.5975C12.6277 14.6408 12.3477 13.6083 12.3477 12.5V10.75H15.8477ZM24.5977 22.125H17.5977V26.5H24.5977V22.125ZM27.2227 13.375H25.9102C25.1985 13.375 24.5422 13.5529 23.9414 13.9087C23.3406 14.2646 22.8622 14.7429 22.5064 15.3438C22.1506 15.9446 21.9727 16.6008 21.9727 17.3125V17.75H23.2852C23.9968 17.75 24.6531 17.5721 25.2539 17.2163C25.8547 16.8604 26.3331 16.3821 26.6889 15.7812C27.0447 15.1804 27.2227 14.5242 27.2227 13.8125V13.375ZM15.8477 12.5H14.0977C14.0977 13.2933 14.2931 14.0254 14.6839 14.6962C15.0747 15.3671 15.6056 15.8979 16.2764 16.2887C16.9472 16.6796 17.6793 16.875 18.4727 16.875H20.2227C20.2227 16.0817 20.0272 15.3496 19.6364 14.6788C19.2456 14.0079 18.7147 13.4771 18.0439 13.0863C17.3731 12.6954 16.641 12.5 15.8477 12.5Z" fill="#4CAF50"/>
</svg>
