<svg width="32" height="32" viewBox="0 0 32 32" fill="none" xmlns="http://www.w3.org/2000/svg">
<rect width="32" height="32" rx="16" fill="#4CAF50" fill-opacity="0.1"/>
<path d="M11.6333 8.08366C12.2666 8.08366 12.8555 8.24199 13.3999 8.55866C13.9444 8.87533 14.3749 9.30588 14.6916 9.85032C15.0083 10.3948 15.1666 10.9837 15.1666 11.617V15.167H11.6333C10.9888 15.167 10.3944 15.0087 9.84992 14.692C9.30547 14.3753 8.87492 13.9448 8.55825 13.4003C8.24159 12.8559 8.08325 12.2642 8.08325 11.6253C8.08325 10.9864 8.24159 10.3948 8.55825 9.85032C8.87492 9.30588 9.30547 8.87533 9.84992 8.55866C10.3944 8.24199 10.9833 8.08366 11.6166 8.08366H11.6333ZM13.4999 13.5003V11.617C13.4999 11.2837 13.4166 10.9725 13.2499 10.6837C13.0833 10.3948 12.8555 10.167 12.5666 10.0003C12.2777 9.83366 11.9638 9.75033 11.6249 9.75033C11.286 9.75033 10.9721 9.83366 10.6833 10.0003C10.3944 10.167 10.1666 10.3948 9.99992 10.6837C9.83325 10.9725 9.74992 11.2864 9.74992 11.6253C9.74992 11.9642 9.83325 12.2781 9.99992 12.567C10.1666 12.8559 10.3944 13.0837 10.6833 13.2503C10.9721 13.417 11.2833 13.5003 11.6166 13.5003H13.4999ZM11.6333 16.8337H15.1666V20.367C15.1666 21.0114 15.0083 21.6059 14.6916 22.1503C14.3749 22.6948 13.9444 23.1253 13.3999 23.442C12.8555 23.7587 12.2638 23.917 11.6249 23.917C10.986 23.917 10.3944 23.7587 9.84992 23.442C9.30547 23.1253 8.87492 22.6948 8.55825 22.1503C8.24159 21.6059 8.08325 21.0142 8.08325 20.3753C8.08325 19.7364 8.24159 19.1448 8.55825 18.6003C8.87492 18.0559 9.30547 17.6253 9.84992 17.3087C10.3944 16.992 10.9833 16.8337 11.6166 16.8337H11.6333ZM11.6333 18.5003C11.2888 18.5003 10.9721 18.5837 10.6833 18.7503C10.3944 18.917 10.1666 19.1448 9.99992 19.4337C9.83325 19.7225 9.74992 20.0364 9.74992 20.3753C9.74992 20.7142 9.83325 21.0281 9.99992 21.317C10.1666 21.6059 10.3944 21.8337 10.6833 22.0003C10.9721 22.167 11.286 22.2503 11.6249 22.2503C11.9638 22.2503 12.2777 22.167 12.5666 22.0003C12.8555 21.8337 13.0833 21.6059 13.2499 21.317C13.4166 21.0281 13.4999 20.7114 13.4999 20.367V18.5003H11.6333ZM20.3833 8.08366C21.0166 8.08366 21.6055 8.24199 22.1499 8.55866C22.6944 8.87533 23.1249 9.30588 23.4416 9.85032C23.7583 10.3948 23.9166 10.9864 23.9166 11.6253C23.9166 12.2642 23.7583 12.8559 23.4416 13.4003C23.1249 13.9448 22.6944 14.3753 22.1499 14.692C21.6055 15.0087 21.011 15.167 20.3666 15.167H16.8333V11.617C16.8333 10.9837 16.9916 10.3948 17.3083 9.85032C17.6249 9.30588 18.0555 8.87533 18.5999 8.55866C19.1444 8.24199 19.7388 8.08366 20.3833 8.08366ZM20.3833 13.5003C20.7166 13.5003 21.0277 13.417 21.3166 13.2503C21.6055 13.0837 21.8333 12.8559 21.9999 12.567C22.1666 12.2781 22.2499 11.9642 22.2499 11.6253C22.2499 11.2864 22.1666 10.9725 21.9999 10.6837C21.8333 10.3948 21.6055 10.167 21.3166 10.0003C21.0277 9.83366 20.7138 9.75033 20.3749 9.75033C20.036 9.75033 19.7221 9.83366 19.4333 10.0003C19.1444 10.167 18.9166 10.3948 18.7499 10.6837C18.5833 10.9725 18.4999 11.2837 18.4999 11.617V13.5003H20.3833ZM16.8333 16.8337H20.3833C21.0166 16.8337 21.6055 16.992 22.1499 17.3087C22.6944 17.6253 23.1249 18.0559 23.4416 18.6003C23.7583 19.1448 23.9166 19.7364 23.9166 20.3753C23.9166 21.0142 23.7583 21.6059 23.4416 22.1503C23.1249 22.6948 22.6944 23.1253 22.1499 23.442C21.6055 23.7587 21.0138 23.917 20.3749 23.917C19.736 23.917 19.1444 23.7587 18.5999 23.442C18.0555 23.1253 17.6249 22.6948 17.3083 22.1503C16.9916 21.6059 16.8333 21.0114 16.8333 20.367V16.8337ZM18.4999 18.5003V20.367C18.4999 20.7114 18.5833 21.0281 18.7499 21.317C18.9166 21.6059 19.1444 21.8337 19.4333 22.0003C19.7221 22.167 20.036 22.2503 20.3749 22.2503C20.7138 22.2503 21.0277 22.167 21.3166 22.0003C21.6055 21.8337 21.8333 21.6059 21.9999 21.317C22.1666 21.0281 22.2499 20.7142 22.2499 20.3753C22.2499 20.0364 22.1666 19.7225 21.9999 19.4337C21.8333 19.1448 21.6055 18.917 21.3166 18.7503C21.0277 18.5837 20.7166 18.5003 20.3833 18.5003H18.4999Z" fill="#4CAF50"/>
</svg>
