<svg width="56" height="56" viewBox="0 0 56 56" fill="none" xmlns="http://www.w3.org/2000/svg">
<rect width="56" height="56" rx="20" fill="#2C7A2A" fill-opacity="0.1"/>
<path d="M28 17L36.22 18.82C36.4467 18.8733 36.6333 18.9933 36.78 19.18C36.9267 19.3667 37 19.5733 37 19.8V29.78C37 30.7933 36.7633 31.74 36.29 32.62C35.8167 33.5 35.16 34.22 34.32 34.78L28 39L21.68 34.78C20.84 34.22 20.1833 33.5 19.71 32.62C19.2367 31.74 19 30.7933 19 29.78V19.8C19 19.5733 19.0733 19.3667 19.22 19.18C19.3667 18.9933 19.5533 18.8733 19.78 18.82L28 17ZM28 19.04L21 20.6V29.78C21 30.46 21.1567 31.0933 21.47 31.68C21.7833 32.2667 22.22 32.7467 22.78 33.12L28 36.6L33.22 33.12C33.78 32.7467 34.2167 32.2667 34.53 31.68C34.8433 31.0933 35 30.46 35 29.78V20.6L28 19.04ZM32.46 24.22L33.86 25.64L27.5 32L23.26 27.76L24.68 26.34L27.5 29.18L32.46 24.22Z" fill="#2C7A2A"/>
</svg>
