<svg width="56" height="56" viewBox="0 0 56 56" fill="none" xmlns="http://www.w3.org/2000/svg">
<rect width="56" height="56" rx="20" fill="#2C7A2A" fill-opacity="0.1"/>
<path d="M32.8205 32.06L33.0005 32.24L33.1805 32.06C33.4605 31.7666 33.7938 31.57 34.1805 31.47C34.5671 31.37 34.9538 31.37 35.3405 31.47C35.7271 31.57 36.0671 31.7666 36.3605 32.06C36.6538 32.3533 36.8505 32.6933 36.9505 33.08C37.0505 33.4666 37.0505 33.85 36.9505 34.23C36.8505 34.61 36.6538 34.9466 36.3605 35.24L33.0005 38.6L29.6405 35.24C29.3471 34.9466 29.1505 34.61 29.0505 34.23C28.9505 33.85 28.9505 33.4666 29.0505 33.08C29.1505 32.6933 29.3471 32.3533 29.6405 32.06C29.9338 31.7666 30.2738 31.57 30.6605 31.47C31.0471 31.37 31.4338 31.37 31.8205 31.47C32.2071 31.57 32.5405 31.7666 32.8205 32.06ZM26.9805 30.4V32.4C25.9005 32.4 24.8938 32.6733 23.9605 33.22C23.0538 33.7533 22.3338 34.4733 21.8005 35.38C21.2538 36.3133 20.9805 37.32 20.9805 38.4H18.9805C18.9805 36.9733 19.3338 35.6466 20.0405 34.42C20.7205 33.2333 21.6471 32.2866 22.8205 31.58C24.0205 30.8333 25.3271 30.44 26.7405 30.4H26.9805ZM26.9805 17.4C28.0738 17.4 29.0871 17.6733 30.0205 18.22C30.9138 18.7533 31.6271 19.4733 32.1605 20.38C32.7071 21.3 32.9805 22.3 32.9805 23.38C32.9805 24.46 32.7205 25.4533 32.2005 26.36C31.6938 27.2533 30.9971 27.9733 30.1105 28.52C29.2238 29.0666 28.2538 29.36 27.2005 29.4H26.9805C25.9005 29.4 24.8938 29.1266 23.9605 28.58C23.0538 28.0466 22.3338 27.3266 21.8005 26.42C21.2538 25.5 20.9805 24.5 20.9805 23.42C20.9805 22.34 21.2405 21.3466 21.7605 20.44C22.2671 19.5466 22.9638 18.8266 23.8505 18.28C24.7371 17.7333 25.7071 17.44 26.7605 17.4H26.9805ZM26.9805 19.4C26.2605 19.4 25.5938 19.58 24.9805 19.94C24.3671 20.3 23.8805 20.7866 23.5205 21.4C23.1605 22.0133 22.9805 22.68 22.9805 23.4C22.9805 24.12 23.1605 24.7866 23.5205 25.4C23.8805 26.0133 24.3671 26.5 24.9805 26.86C25.5938 27.22 26.2605 27.4 26.9805 27.4C27.7005 27.4 28.3671 27.22 28.9805 26.86C29.5938 26.5 30.0805 26.0133 30.4405 25.4C30.8005 24.7866 30.9805 24.12 30.9805 23.4C30.9805 22.68 30.8005 22.0133 30.4405 21.4C30.0805 20.7866 29.5938 20.3 28.9805 19.94C28.3671 19.58 27.7005 19.4 26.9805 19.4Z" fill="#2C7A2A"/>
</svg>
