<svg width="304" height="143" viewBox="0 0 304 143" fill="none" xmlns="http://www.w3.org/2000/svg">
<path d="M299.864 123.526C294.091 135.301 282.172 142.855 269.047 142.999C259.425 143.113 250.35 139.265 243.83 132.573C238.057 139.782 228.809 143.688 219.303 142.482C210.83 141.419 203.535 136.479 199.342 129.442C184.608 136.536 167.347 137.168 151.867 130.792C150.689 130.304 149.54 129.787 148.42 129.241C137.391 136.565 124.381 140.845 110.653 141.218C86.2113 141.878 63.2923 130.046 49.6213 110.171C42.4986 116.892 32.3315 119.735 22.5378 117.236C10.2166 114.106 1.3994 103.307 0.767549 90.6122C0.566505 86.3903 1.28451 82.2832 2.77798 78.5495C4.41506 85.4425 9.26885 91.2728 16.0756 94.0587C23.7153 97.1892 32.3315 95.8393 38.5926 90.8419C45.4568 97.3902 54.4176 101.382 63.9529 102.043C72.9137 102.675 81.7596 100.348 89.1696 95.4947C101.146 104.513 116.655 107.787 131.418 104.226C144.342 101.095 155.371 93.0534 162.263 82.0247C167.031 90.9281 176.193 96.7871 186.475 97.2179C193.77 97.5338 200.72 95.0352 206.091 90.5261C207.728 97.1605 212.84 102.646 219.762 104.456C225.449 105.949 231.337 104.714 235.817 101.382C238.976 105.576 243.457 108.649 248.598 110.056C254.859 111.779 261.522 110.889 267.122 107.586C272.723 104.312 276.744 98.9124 278.266 92.5939C279.817 86.3041 278.754 79.6409 275.308 74.1553C283.522 75.7349 291.047 80.3015 296.303 87.2232C304.229 97.6775 305.608 111.722 299.864 123.526Z" fill="#E9E9E9"/>
<path d="M278.264 92.5928C276.742 98.9113 272.721 104.311 267.121 107.585C261.52 110.888 254.857 111.778 248.596 110.055C243.455 108.648 238.974 105.575 235.815 101.381C231.335 104.713 225.447 105.948 219.76 104.454C212.839 102.645 207.726 97.1594 206.089 90.525C200.719 95.0341 193.768 97.5328 186.473 97.2168C176.191 96.786 167.029 90.927 162.262 82.0237C155.369 93.0524 144.34 101.094 131.416 104.225C116.653 107.786 101.144 104.512 89.1678 95.4936C81.7579 100.347 72.9119 102.674 63.9511 102.042C54.4159 101.381 45.4551 97.3892 38.5908 90.8409C32.3297 95.8382 23.7136 97.1881 16.0739 94.0576C9.2671 91.2717 4.4133 85.4414 2.77623 78.5484C5.76317 70.9949 11.8519 64.8487 19.8363 61.9767C25.207 60.0524 30.8363 59.7939 36.1209 61.0001C36.7814 58.6451 37.7867 56.3762 39.1365 54.3083C42.7266 48.7365 48.3845 44.8017 54.9041 43.4519C60.7344 42.2456 66.7945 43.1934 71.9354 46.0367C76.6456 33.6294 86.066 23.29 98.502 17.5172C112.23 11.1125 127.883 11.1412 141.382 17.1438C149.309 5.13861 163.669 -1.78306 178.69 0.399701C194.601 2.69735 206.922 14.5877 210.369 29.5511C225.275 25.042 241.588 27.6268 254.455 36.9036C266.69 45.6921 274.215 59.4205 275.306 74.1542C278.752 79.6398 279.815 86.303 278.264 92.5928Z" fill="#F9FBFC"/>
<path d="M141.799 17.4189C149.5 5.7553 163.354 -1.0451 177.924 0.799805L178.618 0.894531C194.32 3.1619 206.48 14.8956 209.882 29.6631L210.002 30.1846L210.514 30.0293C225.042 25.6345 240.92 28.0464 253.563 36.8838L254.163 37.3096C266.276 46.0104 273.727 59.6031 274.807 74.1914L274.816 74.3154L274.883 74.4199C278.151 79.6224 279.23 85.9077 277.914 91.8945L277.779 92.4727L277.778 92.4756C276.334 98.4683 272.595 103.616 267.378 106.847L266.868 107.153L266.867 107.154C261.554 110.287 255.266 111.203 249.305 109.724L248.728 109.573L248.727 109.572L248.258 109.438C243.422 108.005 239.211 105.057 236.215 101.08L235.916 100.684L235.516 100.98C231.293 104.121 225.782 105.348 220.407 104.1L219.888 103.971H219.887C213.15 102.209 208.17 96.869 206.575 90.4053L206.383 89.626L205.767 90.1416C200.654 94.4343 194.086 96.8722 187.166 96.7383L186.495 96.7178L186.494 96.7168C176.391 96.2934 167.388 90.5367 162.703 81.7881L162.295 81.0264L161.838 81.7588C155.12 92.5064 144.435 100.39 131.896 103.59L131.298 103.738C116.681 107.264 101.326 104.022 89.4686 95.0938L89.1874 94.8828L88.8934 95.0752C81.8035 99.7193 73.3823 102.021 64.8153 101.593L63.9862 101.543H63.9852C54.5676 100.89 45.7167 96.9476 38.9364 90.4795L38.62 90.1777L38.2792 90.4502C32.3492 95.1833 24.2574 96.5697 16.9667 93.8691L16.2635 93.5947C9.65819 90.8913 4.93592 85.2567 3.30064 78.585C6.2571 71.2283 12.2129 65.2504 20.0057 62.4473L20.0047 62.4463C25.2834 60.5551 30.8157 60.3017 36.0096 61.4873L36.4735 61.5938L36.6024 61.1348C37.2095 58.9704 38.1127 56.8822 39.3114 54.9629L39.5555 54.582L39.5565 54.5791C42.9651 49.289 48.2747 45.5067 54.409 44.0732L55.0057 43.9414C60.7181 42.7596 66.6561 43.6887 71.6932 46.4746L72.1981 46.7539L72.4032 46.2139C76.9948 34.1191 86.1064 24.0085 98.1376 18.2422L98.7128 17.9707H98.7137C112.309 11.6282 127.81 11.6559 141.179 17.6006L141.565 17.7725L141.799 17.4189Z" stroke="#A3A3A3" stroke-opacity="0.1"/>
<path d="M69.2496 83.6563C72.1849 87.4561 75.3269 90.0869 78.7188 91.8188C82.0963 93.5477 85.6289 94.3404 89.1644 94.306C92.6971 94.2514 96.2096 93.3811 99.5441 91.5804C102.89 89.7738 105.975 87.0827 108.838 83.2227C109.49 88.0276 107.428 93.2146 103.726 96.9109C100.035 100.642 94.6702 102.891 89.2592 102.919C83.8483 103 78.443 100.871 74.672 97.2211C70.8895 93.6023 68.7183 88.4728 69.2496 83.6563Z" fill="#E9E9E9"/>
<path d="M223.915 89.3556C226.853 93.1553 229.993 95.7861 233.384 97.518C236.762 99.247 240.295 100.04 243.83 100.005C247.363 99.9506 250.875 99.0804 254.21 97.2796C257.556 95.4731 260.64 92.7819 263.504 88.9219C264.153 93.7268 262.094 98.9138 258.391 102.61C254.701 106.341 249.336 108.59 243.925 108.618C238.514 108.699 233.109 106.571 229.338 102.92C225.555 99.3015 223.381 94.1691 223.915 89.3556Z" fill="#E9E9E9"/>
<path d="M198.021 66.1568C195.681 72.7339 190.634 78.2941 184.445 82.0594C178.233 85.8276 170.788 87.772 163.39 87.5795C155.992 87.4158 148.651 85.0923 142.634 81.0169C136.64 76.9443 131.878 71.1312 129.887 64.4336C135.709 68.2132 141.166 71.068 146.784 72.9923C152.373 74.9281 158.011 75.9362 163.677 76.097C169.347 76.2406 175.033 75.5169 180.714 73.8654C186.432 72.2284 192.027 69.6464 198.021 66.1568Z" fill="#E9E9E9"/>
</svg>
