<svg width="41" height="40" viewBox="0 0 41 40" fill="none" xmlns="http://www.w3.org/2000/svg">
<path d="M23.3926 10.75C23.9526 10.75 24.4659 10.8871 24.9326 11.1612C25.3992 11.4354 25.7697 11.8058 26.0438 12.2725C26.318 12.7392 26.4551 13.2525 26.4551 13.8125C26.4551 14.0108 26.4376 14.2033 26.4026 14.39L26.3851 14.4425C27.1784 14.7108 27.8259 15.1862 28.3276 15.8687C28.8292 16.5512 29.0801 17.3242 29.0801 18.1875C29.0801 18.9925 28.8555 19.7246 28.4063 20.3837C27.9572 21.0429 27.3709 21.5242 26.6476 21.8275L25.7026 27.515C25.6676 27.725 25.5684 27.9 25.4051 28.04C25.2417 28.18 25.0551 28.25 24.8451 28.25H15.8151C15.6051 28.25 15.4184 28.18 15.2551 28.04C15.0917 27.9 14.9926 27.725 14.9576 27.515L14.0651 22.125C13.6101 22.09 13.193 21.9529 12.8138 21.7137C12.4347 21.4746 12.1342 21.1596 11.9126 20.7688C11.6909 20.3779 11.5801 19.955 11.5801 19.5C11.5801 18.94 11.7434 18.4325 12.0701 17.9775C12.3967 17.5225 12.8167 17.2017 13.3301 17.015V16.875C13.3301 15.93 13.5692 15.0492 14.0476 14.2325C14.5142 13.4392 15.1442 12.8092 15.9376 12.3425C16.7542 11.8642 17.6351 11.625 18.5801 11.625C19.3734 11.625 20.1259 11.7942 20.8376 12.1325C21.1176 11.7125 21.4822 11.3771 21.9313 11.1262C22.3805 10.8754 22.8676 10.75 23.3926 10.75ZM17.7051 22.125H15.8326L16.5676 26.5H17.7051V22.125ZM21.2051 22.125H19.4551V26.5H21.2051V22.125ZM24.8276 22.125H22.9551V26.5H24.0926L24.8276 22.125ZM18.5801 13.375C17.9617 13.375 17.393 13.5238 16.8738 13.8212C16.3547 14.1187 15.9347 14.5183 15.6138 15.02C15.293 15.5217 15.1151 16.07 15.0801 16.665V16.9975C15.0917 17.3475 15.0013 17.6713 14.8088 17.9688C14.6163 18.2662 14.3626 18.485 14.0476 18.625L13.9076 18.6775C13.7326 18.7358 13.5926 18.8408 13.4876 18.9925C13.3826 19.1442 13.3301 19.3133 13.3301 19.5C13.3301 19.745 13.4147 19.9521 13.5838 20.1213C13.753 20.2904 13.9601 20.375 14.2051 20.375H25.1426C25.5392 20.375 25.9038 20.2758 26.2363 20.0775C26.5688 19.8792 26.8342 19.6137 27.0326 19.2812C27.2309 18.9487 27.3301 18.5842 27.3301 18.1875C27.3301 17.7908 27.2309 17.4262 27.0326 17.0938C26.8342 16.7612 26.5688 16.4958 26.2363 16.2975C25.9038 16.0992 25.5392 16 25.1426 16C24.8509 16 24.5709 16.0525 24.3026 16.1575L24.1451 16.245C23.7251 16.455 23.2905 16.4929 22.8413 16.3588C22.3922 16.2246 22.0509 15.9475 21.8176 15.5275L21.7651 15.405C21.4734 14.7867 21.0417 14.2937 20.4701 13.9262C19.8984 13.5588 19.2684 13.375 18.5801 13.375ZM23.3926 12.5C23.1592 12.5 22.9434 12.5583 22.7451 12.675C22.5467 12.7917 22.3892 12.9433 22.2726 13.13C22.7276 13.585 23.0892 14.1042 23.3576 14.6875C23.7542 14.4775 24.1742 14.3433 24.6176 14.285C24.6759 14.1333 24.7051 13.9758 24.7051 13.8125C24.7051 13.4508 24.5767 13.1417 24.3201 12.885C24.0634 12.6283 23.7542 12.5 23.3926 12.5Z" fill="#4CAF50"/>
</svg>
