<svg width="40" height="40" viewBox="0 0 40 40" fill="none" xmlns="http://www.w3.org/2000/svg">
<path d="M27.875 10.75V28.25H26.125V22.125H22.625V16C22.625 15.055 22.8642 14.1742 23.3425 13.3575C23.8092 12.5642 24.4392 11.9342 25.2325 11.4675C26.0492 10.9892 26.93 10.75 27.875 10.75ZM26.125 12.955C25.67 13.2117 25.285 13.5733 24.97 14.04C24.5733 14.6233 24.375 15.2767 24.375 16V20.375H26.125V12.955ZM17.375 21.1625V28.25H15.625V21.1625C14.96 21.0342 14.3621 20.7629 13.8312 20.3488C13.3004 19.9346 12.8833 19.4242 12.58 18.8175C12.2767 18.2108 12.125 17.5633 12.125 16.875V11.625H13.875V17.75H15.625V11.625H17.375V17.75H19.125V11.625H20.875V16.875C20.875 17.5633 20.7233 18.2108 20.42 18.8175C20.1167 19.4242 19.6996 19.9346 19.1687 20.3488C18.6379 20.7629 18.04 21.0342 17.375 21.1625Z" fill="#4CAF50"/>
</svg>
