<svg width="56" height="56" viewBox="0 0 56 56" fill="none" xmlns="http://www.w3.org/2000/svg">
<rect width="56" height="56" rx="20" fill="#2C7A2A" fill-opacity="0.1"/>
<path d="M28 38C26.64 38 25.34 37.74 24.1 37.22C22.9133 36.7133 21.8567 35.9967 20.93 35.07C20.0033 34.1433 19.2867 33.0867 18.78 31.9C18.26 30.66 18 29.36 18 28C18 26.64 18.26 25.34 18.78 24.1C19.2867 22.9133 20.0033 21.8567 20.93 20.93C21.8567 20.0033 22.9133 19.2867 24.1 18.78C25.34 18.26 26.64 18 28 18C29.36 18 30.66 18.26 31.9 18.78C33.0867 19.2867 34.1433 20.0033 35.07 20.93C35.9967 21.8567 36.7133 22.9133 37.22 24.1C37.74 25.34 38 26.64 38 28C38 29.36 37.74 30.66 37.22 31.9C36.7133 33.0867 35.9967 34.1433 35.07 35.07C34.1433 35.9967 33.0867 36.7133 31.9 37.22C30.66 37.74 29.36 38 28 38ZM25.72 35.66C24.72 33.5533 24.1533 31.3333 24.02 29H20.06C20.1933 30.04 20.5167 31.0133 21.03 31.92C21.5433 32.8267 22.2033 33.6033 23.01 34.25C23.8167 34.8967 24.72 35.3667 25.72 35.66ZM26.04 29C26.1867 31.4 26.84 33.6533 28 35.76C29.16 33.6533 29.8133 31.4 29.96 29H26.04ZM35.94 29H31.98C31.8467 31.3333 31.2867 33.5533 30.3 35.66C31.2867 35.3667 32.1833 34.8967 32.99 34.25C33.7967 33.6033 34.4567 32.8267 34.97 31.92C35.4833 31.0133 35.8067 30.04 35.94 29ZM20.06 27H24.02C24.1533 24.6667 24.72 22.4467 25.72 20.34C24.72 20.6333 23.8167 21.1033 23.01 21.75C22.2033 22.3967 21.5433 23.1733 21.03 24.08C20.5167 24.9867 20.1933 25.96 20.06 27ZM26.04 27H29.96C29.8133 24.6 29.16 22.3467 28 20.24C26.84 22.3467 26.1867 24.6 26.04 27ZM30.3 20.34C31.2867 22.4467 31.8467 24.6667 31.98 27H35.94C35.8067 25.96 35.4833 24.9867 34.97 24.08C34.4567 23.1733 33.7967 22.3967 32.99 21.75C32.1833 21.1033 31.2867 20.6333 30.3 20.34Z" fill="#2C7A2A"/>
</svg>
