<svg width="44" height="45" viewBox="0 0 44 45" fill="none" xmlns="http://www.w3.org/2000/svg">
<g filter="url(#filter0_d_449_3601)">
<rect x="2" y="1.75" width="40" height="40" rx="16" fill="#F3F4F6" shape-rendering="crispEdges"/>
<path d="M28 15.4163V16.7497C28 18.8119 27.6356 20.5675 26.9067 22.0163C26.2311 23.3675 25.2756 24.3897 24.04 25.083C22.8667 25.7497 21.52 26.083 20 26.083H17.4933C17.3867 26.6875 17.3333 27.3541 17.3333 28.083H16C16 27.1763 16.0756 26.3452 16.2267 25.5897C16.0756 24.7275 16 23.5586 16 22.083C16 21.1763 16.1733 20.3097 16.52 19.483C16.8578 18.6919 17.3356 17.9875 17.9533 17.3697C18.5711 16.7519 19.2756 16.2741 20.0667 15.9363C20.8933 15.5897 21.76 15.4163 22.6667 15.4163C22.9333 15.4163 23.3511 15.4608 23.92 15.5497C24.3822 15.6208 24.7467 15.6652 25.0133 15.683C25.4667 15.7186 25.9111 15.723 26.3467 15.6963C26.8711 15.6519 27.4222 15.5586 28 15.4163ZM22.6667 16.7497C21.6978 16.7497 20.8 16.9941 19.9733 17.483C19.1733 17.9541 18.5378 18.5897 18.0667 19.3897C17.5778 20.2163 17.3333 21.1141 17.3333 22.083V22.7763C17.7422 22.1363 18.2578 21.5408 18.88 20.9897C19.4756 20.4652 20.1822 19.9719 21 19.5097L21.6667 20.6563C20.68 21.2252 19.8844 21.8252 19.28 22.4563C18.64 23.123 18.1644 23.8875 17.8533 24.7497H20C21.3422 24.7497 22.5089 24.4563 23.5 23.8697C24.4911 23.283 25.2533 22.4208 25.7867 21.283C26.3467 20.1008 26.64 18.6741 26.6667 17.003C26.2222 17.0475 25.7689 17.0608 25.3067 17.043C24.8889 17.0163 24.4044 16.963 23.8533 16.883C23.4622 16.8208 23.2 16.783 23.0667 16.7697C22.9333 16.7563 22.8 16.7497 22.6667 16.7497Z" fill="#EA580C"/>
</g>
<defs>
<filter id="filter0_d_449_3601" x="0" y="0.75" width="44" height="44" filterUnits="userSpaceOnUse" color-interpolation-filters="sRGB">
<feFlood flood-opacity="0" result="BackgroundImageFix"/>
<feColorMatrix in="SourceAlpha" type="matrix" values="0 0 0 0 0 0 0 0 0 0 0 0 0 0 0 0 0 0 127 0" result="hardAlpha"/>
<feOffset dy="1"/>
<feGaussianBlur stdDeviation="1"/>
<feComposite in2="hardAlpha" operator="out"/>
<feColorMatrix type="matrix" values="0 0 0 0 0 0 0 0 0 0 0 0 0 0 0 0 0 0 0.05 0"/>
<feBlend mode="normal" in2="BackgroundImageFix" result="effect1_dropShadow_449_3601"/>
<feBlend mode="normal" in="SourceGraphic" in2="effect1_dropShadow_449_3601" result="shape"/>
</filter>
</defs>
</svg>
