<svg width="32" height="33" viewBox="0 0 32 33" fill="none" xmlns="http://www.w3.org/2000/svg">
<rect y="0.5" width="32" height="32" rx="16" fill="white"/>
<path d="M22.6667 19.5533C22.6667 20.1755 22.5289 20.7666 22.2534 21.3266C21.9867 21.86 21.6134 22.3155 21.1334 22.6933C20.6534 23.0711 20.1156 23.3266 19.52 23.46L19.0934 22.18C19.4934 22.1177 19.8578 21.9711 20.1867 21.74C20.5156 21.5088 20.7778 21.22 20.9734 20.8733H19.3334C19.0934 20.8733 18.8712 20.8155 18.6667 20.7C18.4623 20.5844 18.3 20.4244 18.18 20.22C18.06 20.0155 18 19.7888 18 19.54V16.8733C18 16.6333 18.06 16.4111 18.18 16.2066C18.3 16.0022 18.4623 15.84 18.6667 15.72C18.8712 15.6 19.0934 15.54 19.3334 15.54H21.2934C21.1867 14.6777 20.8845 13.8911 20.3867 13.18C19.8889 12.4688 19.2623 11.9088 18.5067 11.5C17.7245 11.0822 16.8889 10.8733 16 10.8733C15.1112 10.8733 14.2756 11.0822 13.4934 11.5C12.7378 11.9088 12.1112 12.4688 11.6134 13.18C11.1156 13.8911 10.8134 14.6777 10.7067 15.54H12.6667C12.9067 15.54 13.1289 15.6 13.3334 15.72C13.5378 15.84 13.7 16.0022 13.82 16.2066C13.94 16.4111 14 16.6333 14 16.8733V19.54C14 19.7888 13.94 20.0155 13.82 20.22C13.7 20.4244 13.5378 20.5844 13.3334 20.7C13.1289 20.8155 12.9067 20.8733 12.6667 20.8733H10.6667C10.4267 20.8733 10.2045 20.8155 10 20.7C9.7956 20.5844 9.63337 20.4244 9.51337 20.22C9.39337 20.0155 9.33337 19.7888 9.33337 19.54V16.2066C9.33337 15.3088 9.50671 14.4466 9.85337 13.62C10.1912 12.82 10.6689 12.1133 11.2867 11.5C11.9045 10.8866 12.6089 10.4111 13.4 10.0733C14.2267 9.71774 15.0934 9.53996 16 9.53996C16.9067 9.53996 17.7734 9.71774 18.6 10.0733C19.3912 10.4111 20.0956 10.8866 20.7134 11.5C21.3312 12.1133 21.8089 12.82 22.1467 13.62C22.4934 14.4466 22.6667 15.3088 22.6667 16.2066V19.5533ZM21.3334 19.54V16.8733H19.3334V19.54H21.3334ZM10.6667 16.8733V19.54H12.6667V16.8733H10.6667Z" fill="#4CAF50"/>
</svg>
