<svg width="48" height="48" viewBox="0 0 48 48" fill="none" xmlns="http://www.w3.org/2000/svg">
<rect width="48" height="48" rx="24" fill="#4CAF50" fill-opacity="0.1"/>
<path d="M31 33.8203H17C16.72 33.8203 16.4833 33.7236 16.29 33.5303C16.0967 33.337 16 33.1003 16 32.8203V23.8203H13L23.32 14.4403C23.52 14.267 23.7467 14.1803 24 14.1803C24.2533 14.1803 24.48 14.267 24.68 14.4403L35 23.8203H32V32.8203C32 33.1003 31.9033 33.337 31.71 33.5303C31.5167 33.7236 31.28 33.8203 31 33.8203ZM18 31.8203H30V21.9803L24 16.5203L18 21.9803V31.8203ZM20.6 26.6403C20.5333 26.3736 20.5 26.1003 20.5 25.8203C20.5 25.5403 20.5333 25.2736 20.6 25.0203L19.6 24.4403L20.6 22.7003L21.6 23.2803C22 22.8936 22.4667 22.6203 23 22.4603V21.3203H25V22.4603C25.5333 22.6203 26 22.8936 26.4 23.2803L27.4 22.7003L28.4 24.4403L27.4 25.0203C27.4667 25.2736 27.5 25.5403 27.5 25.8203C27.5 26.1003 27.4667 26.3736 27.4 26.6403L28.4 27.2003L27.4 28.9403L26.4 28.3603C26 28.747 25.5333 29.0203 25 29.1803V30.3203H23V29.1803C22.4667 29.0203 22 28.747 21.6 28.3603L20.6 28.9403L19.6 27.2003L20.6 26.6403ZM24 27.3203C24.4133 27.3203 24.7667 27.1736 25.06 26.8803C25.3533 26.587 25.5 26.2336 25.5 25.8203C25.5 25.407 25.3533 25.0536 25.06 24.7603C24.7667 24.467 24.4133 24.3203 24 24.3203C23.5867 24.3203 23.2333 24.467 22.94 24.7603C22.6467 25.0536 22.5 25.407 22.5 25.8203C22.5 26.2336 22.6467 26.587 22.94 26.8803C23.2333 27.1736 23.5867 27.3203 24 27.3203Z" fill="#4CAF50"/>
</svg>
