<svg width="1920" height="89" viewBox="0 0 1920 89" fill="none" xmlns="http://www.w3.org/2000/svg">
<path d="M483.377 6.52352C476.5 6.00291 469.647 5.57375 462.817 5.31043C432.568 4.14356 408.417 8.0884 379.369 9.14672C342.597 10.4865 307.364 5.76674 272.023 6.89441C243.553 7.80297 219.935 9.1819 193.283 12.1528C180.518 13.576 170.14 13.5066 156.626 13.2694C105.549 12.3729 56.0435 10.3518 4.55424 10.3518C4.33408 10.3518 0 10.3518 0 10.3518C0 10.3568 0 89 0 89H1920C1920 89 1920 10.391 1920 10.3518C1920 8.30248 1848.17 12.8604 1840.55 12.9538C1817.16 13.2413 1793.73 9.05122 1770.8 7.40696C1741.05 5.27424 1711.28 5.1617 1681.47 3.42899C1667.45 2.6139 1652.81 0.601773 1639.24 0.269101C1599.4 -0.705798 1558.85 1.04903 1519.85 4.226C1485.68 7.00898 1451.38 8.41405 1418.3 12.6523C1394.17 15.7449 1375.46 15.8685 1349.76 15.8665C1326.37 15.8635 1316.43 13.4544 1295.9 10.7759C1280.71 8.79395 1266.89 10.6282 1252.08 11.4282C1225.02 12.8905 1198.12 12.2845 1171 12.8795C1147.34 13.3991 1125.99 17.2907 1102.63 18.2756C1058.59 20.1299 1010.62 13.0322 968.417 8.27534C925.171 3.40185 881.626 3.70034 836.47 3.24505C809.638 2.97369 782.054 5.31847 755.904 4.76468C736.507 4.35362 718.513 3.11541 698.207 3.94759C660.365 5.49838 624.028 10.1809 587.244 12.1699C552.637 14.0433 517.752 9.12861 483.377 6.52352Z" fill="#4D4D4D"/>
</svg>
