<svg width="24" height="24" viewBox="0 0 24 24" fill="none" xmlns="http://www.w3.org/2000/svg">
<path d="M18 5.66683V7.00016C18 9.06238 17.6356 10.8179 16.9067 12.2668C16.2311 13.6179 15.2756 14.6402 14.04 15.3335C12.8667 16.0002 11.52 16.3335 10 16.3335H7.49333C7.38667 16.9379 7.33333 17.6046 7.33333 18.3335H6C6 17.4268 6.07556 16.5957 6.22667 15.8402C6.07556 14.9779 6 13.8091 6 12.3335C6 11.4268 6.17333 10.5602 6.52 9.7335C6.85778 8.94238 7.33556 8.23794 7.95333 7.62016C8.57111 7.00239 9.27556 6.52461 10.0667 6.18683C10.8933 5.84016 11.76 5.66683 12.6667 5.66683C12.9333 5.66683 13.3511 5.71127 13.92 5.80016C14.3822 5.87127 14.7467 5.91572 15.0133 5.9335C15.4667 5.96905 15.9111 5.9735 16.3467 5.94683C16.8711 5.90238 17.4222 5.80905 18 5.66683ZM12.6667 7.00016C11.6978 7.00016 10.8 7.24461 9.97333 7.7335C9.17333 8.20461 8.53778 8.84016 8.06667 9.64016C7.57778 10.4668 7.33333 11.3646 7.33333 12.3335V13.0268C7.74222 12.3868 8.25778 11.7913 8.88 11.2402C9.47556 10.7157 10.1822 10.2224 11 9.76016L11.6667 10.9068C10.68 11.4757 9.88444 12.0757 9.28 12.7068C8.64 13.3735 8.16444 14.1379 7.85333 15.0002H10C11.3422 15.0002 12.5089 14.7068 13.5 14.1202C14.4911 13.5335 15.2533 12.6713 15.7867 11.5335C16.3467 10.3513 16.64 8.92461 16.6667 7.2535C16.2222 7.29794 15.7689 7.31127 15.3067 7.2935C14.8889 7.26683 14.4044 7.2135 13.8533 7.1335C13.4622 7.07127 13.2 7.0335 13.0667 7.02016C12.9333 7.00683 12.8 7.00016 12.6667 7.00016Z" fill="#2E7D32"/>
</svg>
