<svg width="48" height="48" viewBox="0 0 48 48" fill="none" xmlns="http://www.w3.org/2000/svg">
<rect width="48" height="48" rx="24" fill="#4CAF50" fill-opacity="0.1"/>
<path d="M21.08 19.5L18 24.1V32.5H30V19.5H21.08ZM20 17.5H31C31.28 17.5 31.5167 17.5967 31.71 17.79C31.9033 17.9833 32 18.22 32 18.5V33.5C32 33.78 31.9033 34.0167 31.71 34.21C31.5167 34.4033 31.28 34.5 31 34.5H17C16.72 34.5 16.4833 34.4033 16.29 34.21C16.0967 34.0167 16 33.78 16 33.5V23.5L20 17.5ZM25 13.5H30C30.28 13.5 30.5167 13.5967 30.71 13.79C30.9033 13.9833 31 14.22 31 14.5V16.5H24V14.5C24 14.22 24.0967 13.9833 24.29 13.79C24.4833 13.5967 24.72 13.5 25 13.5ZM20 24.5H22V30.5H20V24.5Z" fill="#4CAF50"/>
</svg>
