<svg width="41" height="40" viewBox="0 0 41 40" fill="none" xmlns="http://www.w3.org/2000/svg">
<path d="M20.6602 12.4655L16.3377 16.8055C15.5443 17.5871 15.0077 18.5088 14.7277 19.5705C14.4593 20.6088 14.4593 21.6471 14.7277 22.6855C15.0077 23.7471 15.5414 24.6717 16.3289 25.4592C17.1164 26.2467 18.041 26.7805 19.1027 27.0605C20.141 27.3288 21.1793 27.3288 22.2177 27.0605C23.2793 26.7805 24.2039 26.2467 24.9914 25.4592C25.7789 24.6717 26.3127 23.7471 26.5927 22.6855C26.861 21.6471 26.861 20.6088 26.5927 19.5705C26.3127 18.5088 25.776 17.5871 24.9827 16.8055L20.6602 12.4655ZM20.6602 9.99797L26.2252 15.563C27.2402 16.5663 27.9227 17.7563 28.2727 19.133C28.6227 20.463 28.6227 21.793 28.2727 23.123C27.9227 24.4996 27.2431 25.6926 26.2339 26.7017C25.2247 27.7109 24.0318 28.3963 22.6552 28.758C21.3252 29.0963 19.9952 29.0963 18.6652 28.758C17.2885 28.3963 16.0956 27.7109 15.0864 26.7017C14.0772 25.6926 13.3977 24.4996 13.0477 23.123C12.6977 21.793 12.6977 20.463 13.0477 19.133C13.3977 17.7563 14.0802 16.5663 15.0952 15.563L20.6602 9.99797Z" fill="#4CAF50"/>
</svg>
