<svg width="44" height="45" viewBox="0 0 44 45" fill="none" xmlns="http://www.w3.org/2000/svg">
<g filter="url(#filter0_d_449_3346)">
<rect x="2" y="1.75" width="40" height="40" rx="16" fill="#FEFCE8" shape-rendering="crispEdges"/>
<path d="M18 15.75C18.7645 15.75 19.48 15.9233 20.1467 16.27C20.7956 16.6078 21.34 17.0767 21.78 17.6767C22.22 18.2767 22.4978 18.9456 22.6134 19.6833C23.0134 19.2833 23.4712 18.9722 23.9867 18.75C24.52 18.5278 25.08 18.4167 25.6667 18.4167H28.6667V20.0833C28.6667 20.8656 28.4712 21.5944 28.08 22.27C27.6978 22.9278 27.1778 23.4478 26.52 23.83C25.8445 24.2211 25.1156 24.4167 24.3334 24.4167H22.6667V27.75H21.3334V22.4167H20C19.1556 22.4167 18.3689 22.2033 17.64 21.7767C16.9378 21.3678 16.3823 20.8122 15.9734 20.11C15.5467 19.3811 15.3334 18.5944 15.3334 17.75V15.75H18ZM27.3334 19.75H25.6667C25.1245 19.75 24.6245 19.8856 24.1667 20.1567C23.7089 20.4278 23.3445 20.7922 23.0734 21.25C22.8023 21.7078 22.6667 22.2078 22.6667 22.75V23.0833H24.3334C24.8756 23.0833 25.3756 22.9478 25.8334 22.6767C26.2912 22.4056 26.6556 22.0411 26.9267 21.5833C27.1978 21.1256 27.3334 20.6256 27.3334 20.0833V19.75ZM18 17.0833H16.6667V17.75C16.6667 18.3544 16.8156 18.9122 17.1134 19.4233C17.4112 19.9344 17.8156 20.3389 18.3267 20.6367C18.8378 20.9344 19.3956 21.0833 20 21.0833H21.3334V20.4167C21.3334 19.8122 21.1845 19.2544 20.8867 18.7433C20.5889 18.2322 20.1845 17.8278 19.6734 17.53C19.1623 17.2322 18.6045 17.0833 18 17.0833Z" fill="#CA8A04"/>
</g>
<defs>
<filter id="filter0_d_449_3346" x="0" y="0.75" width="44" height="44" filterUnits="userSpaceOnUse" color-interpolation-filters="sRGB">
<feFlood flood-opacity="0" result="BackgroundImageFix"/>
<feColorMatrix in="SourceAlpha" type="matrix" values="0 0 0 0 0 0 0 0 0 0 0 0 0 0 0 0 0 0 127 0" result="hardAlpha"/>
<feOffset dy="1"/>
<feGaussianBlur stdDeviation="1"/>
<feComposite in2="hardAlpha" operator="out"/>
<feColorMatrix type="matrix" values="0 0 0 0 0 0 0 0 0 0 0 0 0 0 0 0 0 0 0.05 0"/>
<feBlend mode="normal" in2="BackgroundImageFix" result="effect1_dropShadow_449_3346"/>
<feBlend mode="normal" in="SourceGraphic" in2="effect1_dropShadow_449_3346" result="shape"/>
</filter>
</defs>
</svg>
