<svg width="48" height="48" viewBox="0 0 48 48" fill="none" xmlns="http://www.w3.org/2000/svg">
<rect width="48" height="48" rx="24" fill="#4CAF50" fill-opacity="0.1"/>
<path d="M29 27.44V34.3C29 34.4466 28.95 34.5666 28.85 34.66C28.75 34.7533 28.6333 34.8 28.5 34.8C28.4067 34.8 28.32 34.78 28.24 34.74L24 32.2L19.76 34.74C19.64 34.8066 19.5133 34.8233 19.38 34.79C19.2467 34.7566 19.1467 34.68 19.08 34.56C19.0267 34.48 19 34.3933 19 34.3V27.44C18.0667 26.6933 17.34 25.7866 16.82 24.72C16.2733 23.6133 16 22.44 16 21.2C16 19.7466 16.3667 18.4 17.1 17.16C17.8067 15.9466 18.76 14.9866 19.96 14.28C21.2 13.56 22.5467 13.2 24 13.2C25.4533 13.2 26.8 13.56 28.04 14.28C29.24 14.9866 30.1933 15.9466 30.9 17.16C31.6333 18.4 32 19.7466 32 21.2C32 22.44 31.7267 23.6133 31.18 24.72C30.66 25.7866 29.9333 26.6933 29 27.44ZM21 28.6V31.66L24 29.86L27 31.66V28.6C26.04 29 25.04 29.2 24 29.2C22.96 29.2 21.96 29.0066 21 28.62V28.6ZM24 27.2C25.08 27.2 26.0867 26.9266 27.02 26.38C27.9267 25.8466 28.6467 25.1266 29.18 24.22C29.7267 23.2866 30 22.2766 30 21.19C30 20.1033 29.7267 19.0933 29.18 18.16C28.6467 17.2533 27.9267 16.54 27.02 16.02C26.0867 15.4733 25.08 15.2 24 15.2C22.92 15.2 21.9133 15.4733 20.98 16.02C20.0733 16.54 19.3533 17.2533 18.82 18.16C18.2733 19.0933 18 20.1033 18 21.19C18 22.2766 18.2733 23.2866 18.82 24.22C19.3533 25.1266 20.0733 25.8466 20.98 26.38C21.9133 26.9266 22.92 27.2 24 27.2Z" fill="#4CAF50"/>
</svg>
