<svg width="56" height="56" viewBox="0 0 56 56" fill="none" xmlns="http://www.w3.org/2000/svg">
<rect width="56" height="56" rx="20" fill="#2C7A2A" fill-opacity="0.1"/>
<path d="M28 38C26.64 38 25.34 37.74 24.1 37.22C22.9133 36.7133 21.8567 35.9967 20.93 35.07C20.0033 34.1433 19.2867 33.0867 18.78 31.9C18.26 30.66 18 29.36 18 28C18 26.64 18.26 25.34 18.78 24.1C19.2867 22.9133 20.0033 21.8567 20.93 20.93C21.8567 20.0033 22.9133 19.2867 24.1 18.78C25.34 18.26 26.64 18 28 18C29.36 18 30.66 18.26 31.9 18.78C33.0867 19.2867 34.1433 20.0033 35.07 20.93C35.9967 21.8567 36.7133 22.9133 37.22 24.1C37.74 25.34 38 26.64 38 28C38 29.36 37.74 30.66 37.22 31.9C36.7133 33.0867 35.9967 34.1433 35.07 35.07C34.1433 35.9967 33.0867 36.7133 31.9 37.22C30.66 37.74 29.36 38 28 38ZM28 36C29.4533 36 30.8 35.6333 32.04 34.9C33.24 34.1933 34.1933 33.24 34.9 32.04C35.6333 30.8 36 29.4533 36 28C36 26.5467 35.6333 25.2 34.9 23.96C34.1933 22.76 33.24 21.8067 32.04 21.1C30.8 20.3667 29.4533 20 28 20C26.5467 20 25.2 20.3667 23.96 21.1C22.76 21.8067 21.8067 22.76 21.1 23.96C20.3667 25.2 20 26.5467 20 28C20 29.4533 20.3667 30.8 21.1 32.04C21.8067 33.24 22.76 34.1933 23.96 34.9C25.2 35.6333 26.5467 36 28 36ZM24.5 30H30C30.1333 30 30.25 29.95 30.35 29.85C30.45 29.75 30.5 29.6333 30.5 29.5C30.5 29.3667 30.45 29.25 30.35 29.15C30.25 29.05 30.1333 29 30 29H26C25.5467 29 25.13 28.8867 24.75 28.66C24.37 28.4333 24.0667 28.13 23.84 27.75C23.6133 27.37 23.5 26.9533 23.5 26.5C23.5 26.0467 23.6133 25.63 23.84 25.25C24.0667 24.87 24.37 24.5667 24.75 24.34C25.13 24.1133 25.5467 24 26 24H27V22H29V24H31.5V26H26C25.8667 26 25.75 26.05 25.65 26.15C25.55 26.25 25.5 26.3667 25.5 26.5C25.5 26.6333 25.55 26.75 25.65 26.85C25.75 26.95 25.8667 27 26 27H30C30.4533 27 30.87 27.1133 31.25 27.34C31.63 27.5667 31.9333 27.87 32.16 28.25C32.3867 28.63 32.5 29.0467 32.5 29.5C32.5 29.9533 32.3867 30.37 32.16 30.75C31.9333 31.13 31.63 31.4333 31.25 31.66C30.87 31.8867 30.4533 32 30 32H29V34H27V32H24.5V30Z" fill="#2C7A2A"/>
</svg>
