<svg width="44" height="45" viewBox="0 0 44 45" fill="none" xmlns="http://www.w3.org/2000/svg">
<g filter="url(#filter0_d_449_200)">
<rect x="2" y="1.25" width="40" height="40" rx="16" fill="#F8F8F8" shape-rendering="crispEdges"/>
<path d="M18.3334 14.5837C19.2134 14.5837 20.0267 14.8148 20.7734 15.277C21.5023 15.7214 22.0667 16.3214 22.4667 17.077C22.8667 16.517 23.369 16.0725 23.9734 15.7437C24.6045 15.4148 25.2801 15.2503 26.0001 15.2503H28.3334V16.917C28.3334 17.6992 28.1379 18.4281 27.7467 19.1037C27.3645 19.7614 26.8445 20.2814 26.1867 20.6637C25.5112 21.0548 24.7823 21.2503 24.0001 21.2503H23.0001V21.917H26.3334V26.5837C26.3334 26.8237 26.2734 27.0459 26.1534 27.2503C26.0334 27.4548 25.8712 27.617 25.6667 27.737C25.4623 27.857 25.2401 27.917 25.0001 27.917H19.6667C19.4267 27.917 19.2045 27.857 19.0001 27.737C18.7956 27.617 18.6334 27.4548 18.5134 27.2503C18.3934 27.0459 18.3334 26.8237 18.3334 26.5837V21.917H21.6667V20.5837H20.3334C19.489 20.5837 18.7023 20.3703 17.9734 19.9437C17.2712 19.5348 16.7156 18.9792 16.3067 18.277C15.8801 17.5481 15.6667 16.7614 15.6667 15.917V14.5837H18.3334ZM25.0001 23.2503H19.6667V26.5837H25.0001V23.2503ZM27.0001 16.5837H26.0001C25.4579 16.5837 24.9579 16.7192 24.5001 16.9903C24.0423 17.2614 23.6779 17.6259 23.4067 18.0837C23.1356 18.5414 23.0001 19.0414 23.0001 19.5837V19.917H24.0001C24.5423 19.917 25.0423 19.7814 25.5001 19.5103C25.9579 19.2392 26.3223 18.8748 26.5934 18.417C26.8645 17.9592 27.0001 17.4592 27.0001 16.917V16.5837ZM18.3334 15.917H17.0001C17.0001 16.5214 17.149 17.0792 17.4467 17.5903C17.7445 18.1014 18.149 18.5059 18.6601 18.8037C19.1712 19.1014 19.729 19.2503 20.3334 19.2503H21.6667C21.6667 18.6459 21.5179 18.0881 21.2201 17.577C20.9223 17.0659 20.5179 16.6614 20.0067 16.3637C19.4956 16.0659 18.9379 15.917 18.3334 15.917Z" fill="#16A34A"/>
</g>
<defs>
<filter id="filter0_d_449_200" x="0" y="0.25" width="44" height="44" filterUnits="userSpaceOnUse" color-interpolation-filters="sRGB">
<feFlood flood-opacity="0" result="BackgroundImageFix"/>
<feColorMatrix in="SourceAlpha" type="matrix" values="0 0 0 0 0 0 0 0 0 0 0 0 0 0 0 0 0 0 127 0" result="hardAlpha"/>
<feOffset dy="1"/>
<feGaussianBlur stdDeviation="1"/>
<feComposite in2="hardAlpha" operator="out"/>
<feColorMatrix type="matrix" values="0 0 0 0 0 0 0 0 0 0 0 0 0 0 0 0 0 0 0.05 0"/>
<feBlend mode="normal" in2="BackgroundImageFix" result="effect1_dropShadow_449_200"/>
<feBlend mode="normal" in="SourceGraphic" in2="effect1_dropShadow_449_200" result="shape"/>
</filter>
</defs>
</svg>
