<svg width="467" height="400" viewBox="0 0 467 400" fill="none" xmlns="http://www.w3.org/2000/svg">
<path d="M61.731 285.008C43.3038 246.365 37.9322 202.78 46.4254 160.819C54.9186 118.858 76.8167 80.793 108.821 52.3574C140.826 23.9218 181.203 6.65559 223.872 3.15959C266.541 -0.336411 309.191 10.1271 345.397 32.974C381.603 55.8209 409.405 89.8139 424.615 129.833C439.825 169.852 441.62 213.73 429.729 254.857C417.837 295.985 392.904 332.134 358.684 357.862C324.465 383.589 282.812 397.5 240 397.5" stroke="#2E7D32" stroke-width="5"/>
<path d="M235.998 164.234C238.535 165.886 234.788 163.885 235.998 164.234C236.549 164.393 235.953 163.662 235.999 164.235C236.048 164.836 236.577 164.357 235.999 164.235C231.917 163.367 232.444 164.513 222.135 152.764C209.711 138.604 215.102 128.764 202.594 117.333C202.594 117.333 208.142 123.367 211.75 140.672C214.606 154.369 227.585 162.27 227.797 162.434C227.621 162.427 216.294 161.859 206.878 150.32C196.402 137.482 204.081 121.906 190.543 108.295C190.543 108.295 210.648 107.489 223.959 123.801C232.745 134.569 232.241 145.16 232.976 153.568C233.264 156.862 233.003 162.284 235.998 164.234Z" fill="#4FC646"/>
<path d="M228.998 258.234C231.535 259.886 227.788 257.885 228.998 258.234C229.549 258.393 228.953 257.662 228.999 258.235C229.048 258.836 229.577 258.357 228.999 258.235C224.917 257.367 225.444 258.513 215.135 246.764C202.711 232.604 208.102 222.764 195.594 211.333C195.594 211.333 201.142 217.367 204.75 234.672C207.606 248.369 220.585 256.27 220.797 256.434C220.621 256.427 209.294 255.859 199.878 244.32C189.402 231.482 197.081 215.906 183.543 202.295C183.543 202.295 203.648 201.489 216.959 217.801C225.745 228.569 225.241 239.16 225.976 247.568C226.264 250.862 226.003 256.284 228.998 258.234Z" fill="#4FC646"/>
<path d="M273.969 174.085C273.396 177.058 273.835 172.833 273.969 174.085C274.029 174.656 274.481 173.828 273.968 174.087C273.429 174.359 274.073 174.668 273.968 174.087C273.231 169.979 272.369 170.899 279.359 156.918C287.783 140.07 298.929 141.349 304.795 125.451C304.795 125.451 301.301 132.867 286.637 142.739C275.031 150.552 272.612 165.553 272.541 165.811C272.481 165.646 268.731 154.942 275.864 141.867C283.799 127.321 301.121 128.554 308.616 110.881C308.616 110.881 316.95 129.195 306.868 147.678C300.213 159.877 290.214 163.408 282.705 167.262C279.764 168.772 274.644 170.576 273.969 174.085Z" fill="#4FC646"/>
<path d="M296.469 246.782C295.848 249.745 296.356 245.528 296.469 246.782C296.52 247.354 296.985 246.534 296.468 246.784C295.925 247.047 296.563 247.367 296.468 246.784C295.798 242.665 294.921 243.571 302.138 229.706C310.836 212.997 321.96 214.457 328.085 198.658C328.085 198.658 324.47 206.016 309.647 215.647C297.915 223.27 295.252 238.229 295.176 238.486C295.119 238.32 291.544 227.556 298.889 214.6C307.061 200.185 324.361 201.701 332.143 184.152C332.143 184.152 340.177 202.6 329.794 220.915C322.941 233.005 312.886 236.371 305.315 240.103C302.35 241.564 297.201 243.285 296.469 246.782Z" fill="#4FC646"/>
<path d="M292.999 243.496H288.265C286.21 253.275 282.529 262.155 278.339 269.851C270.489 260.975 270.599 234.868 270.599 234.868H268.442C268.147 265.413 272.765 279.041 272.77 279.052C263.801 292.467 254.684 300.448 254.684 300.448C254.635 299.189 254.586 297.94 254.536 296.702C254.03 283.982 253.426 268.045 252.824 251.759C255.959 228.642 271.105 168 271.105 168H268.429L251.92 227.169C250.763 195.377 249.8 168 249.8 168H244.474C244.474 168 244.901 186.546 245.211 211.021L233.626 168H230.075C230.075 168 245.591 227.674 245.521 251.168V251.164C245.566 274.269 245.327 297.042 244.474 311.801C244.391 313.247 244.29 314.701 244.179 316.161C239.56 300.466 224.945 261.232 224.945 261.232H221C226.911 269.851 241.131 341.525 241.161 341.676C236.348 372.744 228.495 400 228.495 400H258.083C258.083 400 256.879 360.136 255.46 321.164C281.243 296.009 292.999 243.496 292.999 243.496Z" fill="#754C28"/>
<path d="M281.618 272.778C275.684 288.701 262.331 310.634 257.002 315.141C251.671 319.648 251.946 323.853 252.194 338.576C252.441 353.298 252.441 396.261 244.034 396.562C235.627 396.863 231.041 390.502 231.041 390.502C229.518 396.458 228.5 399.994 228.5 399.994H258.088C258.088 399.994 256.883 360.13 255.465 321.158C281.246 296.007 293.001 243.492 293.001 243.492H290.768C289.578 248.092 286.293 260.232 281.618 272.778Z" fill="#603813"/>
<path d="M222.914 261.232C229.528 277.436 244.179 316.161 244.179 316.161C239.56 300.465 224.945 261.232 224.945 261.232H222.914Z" fill="#603813"/>
<path d="M269.297 234.867C269.662 243.551 271.276 265.531 278.338 269.85C270.488 260.973 270.598 234.867 270.598 234.867H269.297Z" fill="#603813"/>
<path d="M252.818 251.759C255.952 228.642 271.099 168 271.099 168H270.33C265.609 186.939 250.982 245.937 250.827 250.472C250.641 255.88 254.677 300.446 254.677 300.446C254.628 299.187 254.579 297.938 254.528 296.7C254.024 283.982 253.42 268.045 252.818 251.759Z" fill="#603813"/>
<path d="M251.917 227.169C250.76 195.377 249.797 168 249.797 168H247.539L251.917 227.169Z" fill="#603813"/>
<path d="M232.133 168L245.211 211.021L233.625 168H232.133Z" fill="#603813"/>
<path d="M248.788 211.223C248.179 205.449 246.818 177.711 246.352 168H244.471C244.471 168 244.898 186.546 245.208 211.021C245.208 211.021 246.192 218.475 244.177 213.647C242.49 209.604 233.477 178.145 230.586 168.002H230.074C230.074 168.002 245.59 227.676 245.52 251.17V251.166C245.564 274.271 245.326 297.046 244.472 311.803C244.389 313.248 244.289 314.703 244.177 316.163C244.177 316.163 244.524 329.568 244.177 330.469C243.832 331.371 240.074 317.625 235.994 302.528C232.713 290.387 225.016 269.106 222.126 261.234H221C226.911 269.853 241.131 341.527 241.161 341.678C238.545 358.558 235.035 374.303 232.372 385.173C235.772 387.178 241.511 389.797 244.177 386.579C248.097 381.847 249.532 325.514 249.729 320.782C249.926 316.05 249.717 317.176 266.593 296.446C280.431 279.446 287.033 252.616 288.964 243.499H288.262C286.207 253.279 282.526 262.159 278.336 269.854C278.182 269.68 278.035 269.487 277.887 269.299L276.608 273.011C269.773 263.891 268.998 244.777 269.095 234.872H268.439C268.252 254.153 270.024 266.678 271.356 273.307C272.176 276.797 272.767 279.055 272.767 279.055C269.481 286.452 251.017 308.614 250.825 305.684C250.634 302.755 248.791 254.534 248.791 250.478C248.791 246.422 249.348 246.196 250.825 239.211C252.072 233.316 265.657 183.433 269.866 168.005H268.426L251.916 227.169L250.821 234.225C250.821 234.225 249.53 218.249 248.788 211.223Z" fill="#865831"/>
<path d="M244.177 338.577C243.575 335.123 234.191 302.424 227.5 280.63C233.819 304.67 241.139 341.565 241.161 341.674C239.035 355.394 236.319 368.364 233.946 378.576C236.599 381.538 240.642 384.364 242.547 377.035C245.513 365.617 245.068 343.685 244.177 338.577Z" fill="#956238"/>
<circle cx="50" cy="244" r="48.5" fill="white" stroke="#2E7D32" stroke-width="3"/>
<rect x="22" y="216" width="56" height="56" rx="20" fill="#2C7A2A" fill-opacity="0.1"/>
<path d="M54.82 248.06L55 248.24L55.18 248.06C55.46 247.767 55.7933 247.57 56.18 247.47C56.5666 247.37 56.9533 247.37 57.34 247.47C57.7266 247.57 58.0666 247.767 58.36 248.06C58.6533 248.353 58.85 248.693 58.95 249.08C59.05 249.467 59.05 249.85 58.95 250.23C58.85 250.61 58.6533 250.947 58.36 251.24L55 254.6L51.64 251.24C51.3466 250.947 51.15 250.61 51.05 250.23C50.95 249.85 50.95 249.467 51.05 249.08C51.15 248.693 51.3466 248.353 51.64 248.06C51.9333 247.767 52.2733 247.57 52.66 247.47C53.0466 247.37 53.4333 247.37 53.82 247.47C54.2066 247.57 54.54 247.767 54.82 248.06ZM48.98 246.4V248.4C47.9 248.4 46.8933 248.673 45.96 249.22C45.0533 249.753 44.3333 250.473 43.8 251.38C43.2533 252.313 42.98 253.32 42.98 254.4H40.98C40.98 252.973 41.3333 251.647 42.04 250.42C42.72 249.233 43.6466 248.287 44.82 247.58C46.02 246.833 47.3266 246.44 48.74 246.4H48.98ZM48.98 233.4C50.0733 233.4 51.0866 233.673 52.02 234.22C52.9133 234.753 53.6266 235.473 54.16 236.38C54.7066 237.3 54.98 238.3 54.98 239.38C54.98 240.46 54.72 241.453 54.2 242.36C53.6933 243.253 52.9966 243.973 52.11 244.52C51.2233 245.067 50.2533 245.36 49.2 245.4H48.98C47.9 245.4 46.8933 245.127 45.96 244.58C45.0533 244.047 44.3333 243.327 43.8 242.42C43.2533 241.5 42.98 240.5 42.98 239.42C42.98 238.34 43.24 237.347 43.76 236.44C44.2666 235.547 44.9633 234.827 45.85 234.28C46.7366 233.733 47.7066 233.44 48.76 233.4H48.98ZM48.98 235.4C48.26 235.4 47.5933 235.58 46.98 235.94C46.3666 236.3 45.88 236.787 45.52 237.4C45.16 238.013 44.98 238.68 44.98 239.4C44.98 240.12 45.16 240.787 45.52 241.4C45.88 242.013 46.3666 242.5 46.98 242.86C47.5933 243.22 48.26 243.4 48.98 243.4C49.7 243.4 50.3666 243.22 50.98 242.86C51.5933 242.5 52.08 242.013 52.44 241.4C52.8 240.787 52.98 240.12 52.98 239.4C52.98 238.68 52.8 238.013 52.44 237.4C52.08 236.787 51.5933 236.3 50.98 235.94C50.3666 235.58 49.7 235.4 48.98 235.4Z" fill="#2C7A2A"/>
<circle cx="120" cy="50" r="48.5" fill="white" stroke="#2E7D32" stroke-width="3"/>
<rect x="92" y="22" width="56" height="56" rx="20" fill="#2C7A2A" fill-opacity="0.1"/>
<path d="M120 39L128.22 40.82C128.447 40.8733 128.633 40.9933 128.78 41.18C128.927 41.3667 129 41.5733 129 41.8V51.78C129 52.7933 128.763 53.74 128.29 54.62C127.817 55.5 127.16 56.22 126.32 56.78L120 61L113.68 56.78C112.84 56.22 112.183 55.5 111.71 54.62C111.237 53.74 111 52.7933 111 51.78V41.8C111 41.5733 111.073 41.3667 111.22 41.18C111.367 40.9933 111.553 40.8733 111.78 40.82L120 39ZM120 41.04L113 42.6V51.78C113 52.46 113.157 53.0933 113.47 53.68C113.783 54.2667 114.22 54.7467 114.78 55.12L120 58.6L125.22 55.12C125.78 54.7467 126.217 54.2667 126.53 53.68C126.843 53.0933 127 52.46 127 51.78V42.6L120 41.04ZM124.46 46.22L125.86 47.64L119.5 54L115.26 49.76L116.68 48.34L119.5 51.18L124.46 46.22Z" fill="#2C7A2A"/>
<circle cx="417" cy="292" r="48.5" fill="white" stroke="#2E7D32" stroke-width="3"/>
<rect x="389" y="264" width="56" height="56" rx="20" fill="#2C7A2A" fill-opacity="0.1"/>
<path d="M417 302C415.64 302 414.34 301.74 413.1 301.22C411.913 300.713 410.857 299.997 409.93 299.07C409.003 298.143 408.287 297.087 407.78 295.9C407.26 294.66 407 293.36 407 292C407 290.64 407.26 289.34 407.78 288.1C408.287 286.913 409.003 285.857 409.93 284.93C410.857 284.003 411.913 283.287 413.1 282.78C414.34 282.26 415.64 282 417 282C418.36 282 419.66 282.26 420.9 282.78C422.087 283.287 423.143 284.003 424.07 284.93C424.997 285.857 425.713 286.913 426.22 288.1C426.74 289.34 427 290.64 427 292C427 293.36 426.74 294.66 426.22 295.9C425.713 297.087 424.997 298.143 424.07 299.07C423.143 299.997 422.087 300.713 420.9 301.22C419.66 301.74 418.36 302 417 302ZM417 300C418.453 300 419.8 299.633 421.04 298.9C422.24 298.193 423.193 297.24 423.9 296.04C424.633 294.8 425 293.453 425 292C425 290.547 424.633 289.2 423.9 287.96C423.193 286.76 422.24 285.807 421.04 285.1C419.8 284.367 418.453 284 417 284C415.547 284 414.2 284.367 412.96 285.1C411.76 285.807 410.807 286.76 410.1 287.96C409.367 289.2 409 290.547 409 292C409 293.453 409.367 294.8 410.1 296.04C410.807 297.24 411.76 298.193 412.96 298.9C414.2 299.633 415.547 300 417 300ZM413.5 294H419C419.133 294 419.25 293.95 419.35 293.85C419.45 293.75 419.5 293.633 419.5 293.5C419.5 293.367 419.45 293.25 419.35 293.15C419.25 293.05 419.133 293 419 293H415C414.547 293 414.13 292.887 413.75 292.66C413.37 292.433 413.067 292.13 412.84 291.75C412.613 291.37 412.5 290.953 412.5 290.5C412.5 290.047 412.613 289.63 412.84 289.25C413.067 288.87 413.37 288.567 413.75 288.34C414.13 288.113 414.547 288 415 288H416V286H418V288H420.5V290H415C414.867 290 414.75 290.05 414.65 290.15C414.55 290.25 414.5 290.367 414.5 290.5C414.5 290.633 414.55 290.75 414.65 290.85C414.75 290.95 414.867 291 415 291H419C419.453 291 419.87 291.113 420.25 291.34C420.63 291.567 420.933 291.87 421.16 292.25C421.387 292.63 421.5 293.047 421.5 293.5C421.5 293.953 421.387 294.37 421.16 294.75C420.933 295.13 420.63 295.433 420.25 295.66C419.87 295.887 419.453 296 419 296H418V298H416V296H413.5V294Z" fill="#2C7A2A"/>
<circle cx="412" cy="130" r="48.5" fill="white" stroke="#2E7D32" stroke-width="3"/>
<rect x="384" y="102" width="56" height="56" rx="20" fill="#2C7A2A" fill-opacity="0.1"/>
<path d="M412 140C410.64 140 409.34 139.74 408.1 139.22C406.913 138.713 405.857 137.997 404.93 137.07C404.003 136.143 403.287 135.087 402.78 133.9C402.26 132.66 402 131.36 402 130C402 128.64 402.26 127.34 402.78 126.1C403.287 124.913 404.003 123.857 404.93 122.93C405.857 122.003 406.913 121.287 408.1 120.78C409.34 120.26 410.64 120 412 120C413.36 120 414.66 120.26 415.9 120.78C417.087 121.287 418.143 122.003 419.07 122.93C419.997 123.857 420.713 124.913 421.22 126.1C421.74 127.34 422 128.64 422 130C422 131.36 421.74 132.66 421.22 133.9C420.713 135.087 419.997 136.143 419.07 137.07C418.143 137.997 417.087 138.713 415.9 139.22C414.66 139.74 413.36 140 412 140ZM409.72 137.66C408.72 135.553 408.153 133.333 408.02 131H404.06C404.193 132.04 404.517 133.013 405.03 133.92C405.543 134.827 406.203 135.603 407.01 136.25C407.817 136.897 408.72 137.367 409.72 137.66ZM410.04 131C410.187 133.4 410.84 135.653 412 137.76C413.16 135.653 413.813 133.4 413.96 131H410.04ZM419.94 131H415.98C415.847 133.333 415.287 135.553 414.3 137.66C415.287 137.367 416.183 136.897 416.99 136.25C417.797 135.603 418.457 134.827 418.97 133.92C419.483 133.013 419.807 132.04 419.94 131ZM404.06 129H408.02C408.153 126.667 408.72 124.447 409.72 122.34C408.72 122.633 407.817 123.103 407.01 123.75C406.203 124.397 405.543 125.173 405.03 126.08C404.517 126.987 404.193 127.96 404.06 129ZM410.04 129H413.96C413.813 126.6 413.16 124.347 412 122.24C410.84 124.347 410.187 126.6 410.04 129ZM414.3 122.34C415.287 124.447 415.847 126.667 415.98 129H419.94C419.807 127.96 419.483 126.987 418.97 126.08C418.457 125.173 417.797 124.397 416.99 123.75C416.183 123.103 415.287 122.633 414.3 122.34Z" fill="#2C7A2A"/>
</svg>
