<svg width="40" height="40" viewBox="0 0 40 40" fill="none" xmlns="http://www.w3.org/2000/svg">
<path d="M20 11.1875C20.945 11.1875 21.8258 11.4267 22.6425 11.905C23.4358 12.3717 24.0658 13.0017 24.5325 13.795C25.0108 14.6117 25.25 15.4925 25.25 16.4375V17.3125H28.75V19.0625H27.735L27.07 27.0075C27.0467 27.2408 26.9504 27.4333 26.7812 27.585C26.6121 27.7367 26.4167 27.8125 26.195 27.8125H13.805C13.5833 27.8125 13.3879 27.7367 13.2188 27.585C13.0496 27.4333 12.9533 27.2408 12.93 27.0075L12.265 19.0625H11.25V17.3125H14.75V16.4375C14.75 15.4925 14.9892 14.6117 15.4675 13.795C15.9342 13.0017 16.5642 12.3717 17.3575 11.905C18.1742 11.4267 19.055 11.1875 20 11.1875ZM25.9675 19.0625H14.0325L14.61 26.0625H25.39L25.9675 19.0625ZM20.875 20.8125V24.3125H19.125V20.8125H20.875ZM17.375 20.8125V24.3125H15.625V20.8125H17.375ZM24.375 20.8125V24.3125H22.625V20.8125H24.375ZM20 12.9375C19.3817 12.9375 18.8129 13.0863 18.2937 13.3837C17.7746 13.6812 17.3546 14.0837 17.0338 14.5913C16.7129 15.0988 16.535 15.6558 16.5 16.2625V17.3125H23.5V16.4375C23.5 15.8192 23.3512 15.2504 23.0538 14.7312C22.7563 14.2121 22.3538 13.7921 21.8462 13.4712C21.3387 13.1504 20.7817 12.9725 20.175 12.9375H20Z" fill="#4CAF50"/>
</svg>
