<svg width="44" height="45" viewBox="0 0 44 45" fill="none" xmlns="http://www.w3.org/2000/svg">
<g filter="url(#filter0_d_449_3589)">
<rect x="2" y="1.25" width="40" height="40" rx="16" fill="#F8F8F8" shape-rendering="crispEdges"/>
<path d="M22 28.4099C22.9067 28.4188 23.7467 28.1921 24.52 27.7299C25.2756 27.2943 25.8756 26.6988 26.32 25.9432C26.7733 25.161 27 24.3166 27 23.4099C27 22.9566 26.8889 22.4099 26.6667 21.7699C25.5556 22.8632 24.7111 23.4143 24.1333 23.4232C24.7911 22.2677 25.2089 21.2499 25.3867 20.3699C25.5556 19.5077 25.5022 18.7166 25.2267 17.9966C24.9778 17.3299 24.5111 16.6677 23.8267 16.0099C23.2489 15.4499 22.4178 14.8055 21.3333 14.0766C21.4222 14.9921 21.3289 15.8366 21.0533 16.6099C20.84 17.2232 20.5022 17.8055 20.04 18.3566C19.7822 18.6677 19.4 19.0455 18.8933 19.4899L18.5733 19.7699C18.0756 20.241 17.6933 20.7832 17.4267 21.3966C17.1422 22.0366 17 22.7077 17 23.4099C17 24.3166 17.2267 25.161 17.68 25.9432C18.1244 26.6988 18.7244 27.2943 19.48 27.7299C20.2533 28.1832 21.0933 28.4099 22 28.4099ZM22.4667 16.5699C23.1956 17.1921 23.6844 17.7855 23.9333 18.3499C24.1822 18.9143 24.2267 19.5521 24.0667 20.2632C23.9156 20.921 23.5511 21.7521 22.9733 22.7566C22.8133 23.041 22.7622 23.341 22.82 23.6566C22.8778 23.9721 23.0289 24.2343 23.2733 24.4432C23.5178 24.6521 23.8044 24.7566 24.1333 24.7566C24.5778 24.7477 25.0489 24.6143 25.5467 24.3566C25.4133 24.8721 25.1733 25.3388 24.8267 25.7566C24.48 26.1743 24.0622 26.4988 23.5733 26.7299C23.0844 26.961 22.56 27.0766 22 27.0766C21.3333 27.0766 20.72 26.9143 20.16 26.5899C19.6 26.2655 19.1556 25.821 18.8267 25.2566C18.4978 24.6921 18.3333 24.0766 18.3333 23.4099C18.3333 22.9032 18.4333 22.4188 18.6333 21.9566C18.8333 21.4943 19.12 21.0899 19.4933 20.7432L20.0133 20.2766C20.3067 20.0188 20.5556 19.7743 20.76 19.5432C21.6133 18.6366 22.1822 17.6455 22.4667 16.5699Z" fill="#DC2626"/>
</g>
<defs>
<filter id="filter0_d_449_3589" x="0" y="0.25" width="44" height="44" filterUnits="userSpaceOnUse" color-interpolation-filters="sRGB">
<feFlood flood-opacity="0" result="BackgroundImageFix"/>
<feColorMatrix in="SourceAlpha" type="matrix" values="0 0 0 0 0 0 0 0 0 0 0 0 0 0 0 0 0 0 127 0" result="hardAlpha"/>
<feOffset dy="1"/>
<feGaussianBlur stdDeviation="1"/>
<feComposite in2="hardAlpha" operator="out"/>
<feColorMatrix type="matrix" values="0 0 0 0 0 0 0 0 0 0 0 0 0 0 0 0 0 0 0.05 0"/>
<feBlend mode="normal" in2="BackgroundImageFix" result="effect1_dropShadow_449_3589"/>
<feBlend mode="normal" in="SourceGraphic" in2="effect1_dropShadow_449_3589" result="shape"/>
</filter>
</defs>
</svg>
